<?xml version="1.0" standalone="no"?>
<!DOCTYPE svg PUBLIC "-//W3C//DTD SVG 20010904//EN"
 "http://www.w3.org/TR/2001/REC-SVG-20010904/DTD/svg10.dtd">
<svg version="1.0" xmlns="http://www.w3.org/2000/svg"
 width="57.600000pt" height="32.000000pt" viewBox="0 0 57.600000 32.000000"
 preserveAspectRatio="xMidYMid meet">
<metadata>
Created by potrace 1.13, written by Peter Selinger 2001-2015
</metadata>
<g transform="translate(0.000000,32.000000) scale(0.080000,-0.080000)"
fill="#000000" stroke="none">
<path d="M0 200 l0 -200 360 0 360 0 0 200 0 200 -360 0 -360 0 0 -200z m165
35 c54 -53 15 -135 -65 -135 l-40 0 0 80 0 80 40 0 c30 0 47 -7 65 -25z m133
-2 c5 -16 19 -52 31 -80 17 -43 18 -53 7 -53 -8 0 -18 9 -21 20 -9 28 -71 28
-80 0 -3 -11 -12 -20 -20 -20 -9 0 -5 22 17 80 32 84 50 98 66 53z m92 -78 c0
-30 -4 -55 -10 -55 -5 0 -10 25 -10 55 0 30 5 55 10 55 6 0 10 -25 10 -55z
m108 37 c2 -7 -2 -10 -12 -6 -9 3 -24 3 -33 -1 -15 -5 -12 -9 15 -20 40 -17
44 -52 7 -61 -27 -7 -55 0 -55 14 0 5 14 7 30 4 36 -5 41 14 6 28 -32 12 -40
28 -25 46 14 17 60 15 67 -4z m107 7 c3 -4 17 -3 30 3 40 18 55 5 55 -52 0
-27 -4 -50 -10 -50 -5 0 -10 20 -10 45 0 30 -4 45 -13 45 -22 0 -37 -23 -37
-57 0 -48 -18 -40 -22 10 -2 34 -7 42 -23 42 -16 0 -21 -8 -23 -42 -4 -61 -22
-53 -22 10 l0 53 35 1 c19 1 37 -3 40 -8z"/>
<path d="M80 180 c0 -57 1 -60 25 -60 30 0 65 32 65 60 0 28 -35 60 -65 60
-24 0 -25 -3 -25 -60z"/>
<path d="M261 200 c-14 -42 -15 -40 14 -40 29 0 29 -1 11 40 l-13 32 -12 -32z"/>
</g>
</svg>
