<?xml version="1.0" standalone="no"?>
<!DOCTYPE svg PUBLIC "-//W3C//DTD SVG 20010904//EN"
 "http://www.w3.org/TR/2001/REC-SVG-20010904/DTD/svg10.dtd">
<svg version="1.0" xmlns="http://www.w3.org/2000/svg"
 width="204.000000pt" height="145.600000pt" viewBox="0 0 204.000000 145.600000"
 preserveAspectRatio="xMidYMid meet">
<metadata>
Created by potrace 1.13, written by Peter Selinger 2001-2015
</metadata>
<g transform="translate(0.000000,145.600000) scale(0.080000,-0.080000)"
fill="#000000" stroke="none">
<path d="M946 1454 c-22 -22 -23 -186 -1 -208 9 -9 15 -33 15 -61 0 -65 13
-85 55 -85 41 0 47 17 8 22 -26 3 -28 7 -31 56 l-3 52 30 0 c28 0 31 -3 31
-30 0 -20 5 -30 15 -30 10 0 15 10 15 30 0 27 3 30 29 30 27 0 61 21 61 38 0
4 20 6 44 4 47 -4 86 10 86 32 0 9 12 12 37 11 34 -2 38 -6 44 -35 4 -18 14
-37 23 -42 11 -6 16 -23 16 -54 0 -25 4 -53 9 -62 10 -19 71 -29 71 -12 0 5
-13 10 -30 10 -30 0 -30 1 -30 55 0 41 4 56 17 64 15 8 12 11 -17 18 l-35 9
-3 78 c-2 49 1 83 9 92 8 10 35 14 89 14 54 0 81 -4 89 -14 8 -9 11 -43 9 -93
l-3 -78 -52 -5 c-61 -6 -73 -14 -43 -30 16 -9 20 -18 16 -36 -5 -18 -2 -24 9
-24 9 0 13 5 10 10 -12 20 6 50 29 50 39 0 50 25 54 120 5 116 1 120 -124 120
-83 0 -95 -2 -106 -20 -10 -16 -24 -20 -70 -20 -47 0 -60 -4 -70 -20 -9 -13
-24 -20 -45 -20 -29 0 -33 3 -33 28 0 45 -15 52 -116 52 -71 0 -96 -4 -108
-16z m193 -18 c8 -9 11 -43 9 -93 l-3 -78 -89 -3 c-65 -2 -92 1 -98 10 -12 20
-10 152 4 166 18 18 162 16 177 -2z m241 -62 l0 -37 -50 5 c-44 4 -49 3 -52
-16 -3 -18 -11 -21 -55 -24 l-53 -3 0 35 c0 33 2 36 29 36 17 0 33 -4 36 -10
11 -18 25 -10 25 14 0 29 10 34 73 35 l47 1 0 -36z"/>
<path d="M1057 1153 c-14 -13 -6 -23 17 -23 28 0 36 -16 36 -71 0 -24 -5 -39
-12 -39 -7 0 -23 -3 -35 -6 -19 -5 -22 -2 -25 33 -4 46 -22 51 -26 6 -3 -26
-9 -33 -33 -38 -40 -9 -49 -31 -49 -124 0 -108 11 -119 111 -119 71 0 129 17
129 38 0 5 28 10 63 12 56 3 62 5 65 26 3 18 10 22 43 22 38 0 39 -1 39 -33 0
-54 23 -67 118 -67 112 0 122 10 122 125 0 74 -3 88 -22 107 -17 17 -21 32
-19 73 1 34 -3 56 -12 63 -20 17 -59 19 -64 5 -3 -8 5 -13 21 -13 25 0 26 -2
26 -60 0 -33 -3 -60 -7 -60 -35 1 -52 15 -55 44 -4 41 -22 40 -26 -1 -2 -24
-8 -33 -21 -33 -10 0 -30 -9 -43 -20 -18 -13 -43 -20 -79 -21 -58 -2 -79 -12
-79 -38 0 -13 -8 -16 -38 -13 -36 4 -38 6 -34 32 3 21 -1 32 -17 42 -17 11
-21 23 -21 69 0 33 -5 61 -12 67 -19 14 -53 23 -61 15z m87 -179 c7 -19 8
-147 1 -166 -7 -18 -175 -15 -186 4 -10 15 -12 122 -3 156 6 21 12 22 94 22
71 0 89 -3 94 -16z m446 -3 c14 -27 13 -144 -2 -159 -7 -7 -44 -12 -94 -12
-65 0 -83 3 -88 16 -11 28 -6 150 6 162 7 7 43 12 90 12 66 0 79 -3 88 -19z
m-210 -45 c0 -32 -2 -34 -40 -38 -22 -2 -40 0 -40 4 0 22 -19 4 -22 -19 -3
-26 -7 -28 -54 -31 -45 -3 -52 0 -57 18 -9 35 2 50 39 50 24 0 41 7 56 25 17
20 31 25 70 25 48 0 48 0 48 -34z"/>
<path d="M1490 638 c-13 -7 -31 -25 -39 -40 -14 -24 -14 -30 1 -60 9 -18 46
-67 82 -108 59 -67 64 -76 49 -87 -21 -16 -67 -17 -94 -2 -12 6 -27 25 -34 42
l-13 32 -7 -27 c-4 -16 -4 -40 1 -55 5 -21 8 -24 11 -10 5 21 3 21 42 1 45
-22 93 -11 126 28 38 45 28 75 -56 174 -38 46 -67 89 -64 94 17 27 105 -3 105
-36 0 -8 5 -14 10 -14 6 0 10 15 10 34 0 29 -4 34 -22 34 -13 -1 -36 2 -53 6
-18 4 -40 1 -55 -6z m127 -226 c13 -51 -14 -40 -71 30 -74 90 -91 120 -83 142
6 15 21 2 77 -65 39 -46 73 -94 77 -107z"/>
<path d="M443 629 c15 -9 17 -27 17 -146 0 -118 -2 -138 -17 -149 -15 -11 -5
-13 75 -14 103 0 155 18 185 63 21 32 32 77 19 77 -5 0 -12 -10 -15 -22 -4
-13 -13 -32 -21 -43 -14 -18 -15 -11 -16 84 0 82 3 102 12 93 19 -19 30 -14
18 9 -21 38 -86 59 -185 58 -66 0 -85 -2 -72 -10z m77 -149 c0 -133 -1 -140
-20 -140 -19 0 -20 7 -20 140 0 133 1 140 20 140 19 0 20 -7 20 -140z m114
134 c13 -5 16 -27 16 -134 0 -142 1 -140 -70 -140 l-38 0 -4 64 c-1 36 -2 99
0 140 l4 76 38 0 c21 0 45 -3 54 -6z"/>
<path d="M902 626 c11 -8 15 -21 12 -37 -5 -22 -5 -23 9 -6 14 17 17 12 42
-64 29 -92 26 -100 -35 -92 -49 7 -76 -9 -90 -52 -6 -19 -18 -35 -26 -35 -8 0
-14 -4 -14 -10 0 -5 19 -10 42 -10 36 0 39 2 25 13 -13 9 -15 19 -9 42 8 29
11 30 73 33 l65 3 11 -34 c8 -28 7 -36 -6 -45 -12 -8 -1 -11 52 -11 38 -1 67
3 67 9 0 6 -5 10 -10 10 -11 0 -25 30 -45 100 -8 25 -22 76 -33 114 -11 38
-26 72 -34 77 -7 5 -35 9 -63 9 -43 -1 -48 -2 -33 -14z m107 -63 c11 -38 32
-103 45 -146 25 -77 25 -78 4 -75 -17 2 -28 27 -63 140 -40 129 -41 144 -13
147 3 1 15 -29 27 -66z"/>
<path d="M1213 629 c15 -9 17 -27 17 -146 0 -118 -2 -138 -17 -149 -16 -12 -7
-13 57 -13 64 0 73 1 58 13 -16 11 -18 31 -18 148 0 91 4 138 12 146 9 9 -3
12 -57 12 -53 -1 -66 -3 -52 -11z m77 -149 c0 -133 -1 -140 -20 -140 -19 0
-20 7 -20 140 0 133 1 140 20 140 19 0 20 -7 20 -140z"/>
<path d="M1733 629 c15 -9 17 -27 17 -149 0 -118 -2 -140 -15 -140 -8 0 -15
-4 -15 -10 0 -5 23 -10 51 -10 31 0 48 4 44 10 -3 6 -15 10 -26 10 -18 0 -19
8 -19 115 0 63 2 115 6 115 3 0 34 -60 69 -132 l63 -133 20 45 c10 25 25 63
32 84 7 22 23 63 36 90 l23 51 0 -114 c1 -97 -2 -116 -16 -127 -16 -12 -8 -13
52 -13 60 0 68 1 53 13 -16 11 -18 31 -18 149 0 119 2 137 18 146 13 8 5 10
-35 11 -60 0 -57 3 -103 -134 -13 -37 -27 -69 -31 -72 -8 -4 -99 175 -99 196
0 6 -26 10 -62 10 -48 -1 -59 -3 -45 -11z m101 -31 c7 -18 31 -69 52 -113 37
-78 44 -109 27 -126 -5 -5 -36 51 -69 124 -57 123 -62 146 -32 147 4 0 14 -15
22 -32z m244 -115 c-3 -122 -5 -138 -20 -141 -16 -3 -18 9 -18 137 0 135 1
141 20 141 20 0 20 -5 18 -137z"/>
</g>
</svg>
