<?xml version="1.0" standalone="no"?>
<!DOCTYPE svg PUBLIC "-//W3C//DTD SVG 20010904//EN"
 "http://www.w3.org/TR/2001/REC-SVG-20010904/DTD/svg10.dtd">
<svg version="1.0" xmlns="http://www.w3.org/2000/svg"
 width="64.800000pt" height="64.800000pt" viewBox="0 0 64.800000 64.800000"
 preserveAspectRatio="xMidYMid meet">
<metadata>
Created by potrace 1.13, written by Peter Selinger 2001-2015
</metadata>
<g transform="translate(0.000000,64.800000) scale(0.080000,-0.080000)"
fill="#000000" stroke="none">
<path d="M86 734 c-22 -22 -23 -186 -1 -208 9 -9 15 -33 15 -61 0 -65 13 -85
55 -85 41 0 47 17 8 22 -26 3 -28 7 -31 56 l-3 52 30 0 c28 0 31 -3 31 -30 0
-20 5 -30 15 -30 10 0 15 10 15 30 0 27 3 30 29 30 27 0 61 21 61 38 0 4 20 6
44 4 47 -4 86 10 86 32 0 9 12 12 37 11 34 -2 38 -6 44 -35 4 -18 14 -37 23
-42 11 -6 16 -23 16 -54 0 -25 4 -53 9 -62 10 -19 71 -29 71 -12 0 5 -13 10
-30 10 -30 0 -30 1 -30 55 0 41 4 56 17 64 15 8 12 11 -17 18 l-35 9 -3 78
c-2 49 1 83 9 92 8 10 35 14 89 14 54 0 81 -4 89 -14 8 -9 11 -43 9 -93 l-3
-78 -52 -5 c-61 -6 -73 -14 -43 -30 16 -9 20 -18 16 -36 -5 -18 -2 -24 9 -24
9 0 13 5 10 10 -12 20 6 50 29 50 39 0 50 25 54 120 5 116 1 120 -124 120 -83
0 -95 -2 -106 -20 -10 -16 -24 -20 -70 -20 -47 0 -60 -4 -70 -20 -9 -13 -24
-20 -45 -20 -29 0 -33 3 -33 28 0 45 -15 52 -116 52 -71 0 -96 -4 -108 -16z
m193 -18 c8 -9 11 -43 9 -93 l-3 -78 -89 -3 c-65 -2 -92 1 -98 10 -12 20 -10
152 4 166 18 18 162 16 177 -2z m241 -62 l0 -37 -50 5 c-44 4 -49 3 -52 -16
-3 -18 -11 -21 -55 -24 l-53 -3 0 35 c0 33 2 36 29 36 17 0 33 -4 36 -10 11
-18 25 -10 25 14 0 29 10 34 73 35 l47 1 0 -36z"/>
<path d="M197 433 c-14 -13 -6 -23 17 -23 28 0 36 -16 36 -71 0 -24 -5 -39
-12 -39 -7 0 -23 -3 -35 -6 -19 -5 -22 -2 -25 33 -4 46 -22 51 -26 6 -3 -26
-9 -33 -33 -38 -40 -9 -49 -31 -49 -124 0 -108 11 -119 111 -119 71 0 129 17
129 38 0 5 28 10 63 12 56 3 62 5 65 26 3 18 10 22 43 22 38 0 39 -1 39 -33 0
-54 23 -67 118 -67 112 0 122 10 122 125 0 74 -3 88 -22 107 -17 17 -21 32
-19 73 1 34 -3 56 -12 63 -20 17 -59 19 -64 5 -3 -8 5 -13 21 -13 25 0 26 -2
26 -60 0 -33 -3 -60 -7 -60 -35 1 -52 15 -55 44 -4 41 -22 40 -26 -1 -2 -24
-8 -33 -21 -33 -10 0 -30 -9 -43 -20 -18 -13 -43 -20 -79 -21 -58 -2 -79 -12
-79 -38 0 -13 -8 -16 -38 -13 -36 4 -38 6 -34 32 3 21 -1 32 -17 42 -17 11
-21 23 -21 69 0 33 -5 61 -12 67 -19 14 -53 23 -61 15z m87 -179 c7 -19 8
-147 1 -166 -7 -18 -175 -15 -186 4 -10 15 -12 122 -3 156 6 21 12 22 94 22
71 0 89 -3 94 -16z m446 -3 c14 -27 13 -144 -2 -159 -7 -7 -44 -12 -94 -12
-65 0 -83 3 -88 16 -11 28 -6 150 6 162 7 7 43 12 90 12 66 0 79 -3 88 -19z
m-210 -45 c0 -32 -2 -34 -40 -38 -22 -2 -40 0 -40 4 0 22 -19 4 -22 -19 -3
-26 -7 -28 -54 -31 -45 -3 -52 0 -57 18 -9 35 2 50 39 50 24 0 41 7 56 25 17
20 31 25 70 25 48 0 48 0 48 -34z"/>
</g>
</svg>
