<?xml version="1.0" standalone="no"?>
<!DOCTYPE svg PUBLIC "-//W3C//DTD SVG 20010904//EN"
 "http://www.w3.org/TR/2001/REC-SVG-20010904/DTD/svg10.dtd">
<svg version="1.0" xmlns="http://www.w3.org/2000/svg"
 width="259.200000pt" height="170.400000pt" viewBox="0 0 259.200000 170.400000"
 preserveAspectRatio="xMidYMid meet">
<metadata>
Created by potrace 1.13, written by Peter Selinger 2001-2015
</metadata>
<g transform="translate(0.000000,170.400000) scale(0.080000,-0.080000)"
fill="#000000" stroke="none">
<path d="M1415 1875 c-115 -57 -213 -105 -218 -107 -4 -2 -32 -114 -63 -250
l-56 -246 156 -196 156 -196 255 0 255 0 156 196 156 196 -56 245 c-30 135
-57 247 -58 248 -16 14 -445 215 -457 214 -9 0 -110 -47 -226 -104z m440 -32
c112 -54 205 -100 205 -103 0 -3 -92 -73 -205 -155 -112 -83 -205 -154 -205
-158 0 -5 50 -117 111 -250 61 -133 113 -248 116 -255 4 -10 -41 -13 -231 -11
-172 1 -236 5 -233 13 3 6 55 120 116 253 61 134 111 246 111 250 0 5 -93 75
-205 158 -113 82 -205 152 -205 155 0 5 399 198 412 199 4 1 100 -43 213 -96z"/>
<path d="M2011 706 c-7 -8 -11 -34 -9 -58 3 -40 5 -44 38 -51 22 -6 45 -5 63
2 24 9 27 16 27 54 0 24 -5 48 -12 55 -17 17 -93 15 -107 -2z"/>
<path d="M352 364 l3 -299 130 1 c154 1 219 14 269 56 49 40 75 95 85 176 15
126 -13 245 -71 299 -49 46 -94 56 -261 61 l-157 4 2 -298z m296 166 c45 -27
62 -74 62 -164 0 -139 -36 -183 -160 -193 l-70 -6 0 192 0 191 68 0 c50 0 76
-5 100 -20z"/>
<path d="M1022 382 c-56 -152 -105 -287 -109 -300 -5 -22 -4 -23 58 -20 l64 3
25 73 25 72 126 0 125 0 24 -75 24 -75 63 0 c40 0 63 4 63 11 0 6 -48 141
-107 300 l-106 289 -86 0 -86 0 -103 -278z m232 61 c20 -60 36 -111 36 -115 0
-5 -36 -8 -80 -8 -44 0 -80 3 -80 8 0 16 74 222 80 222 4 0 23 -48 44 -107z"/>
<path d="M1643 515 c-58 -25 -86 -100 -63 -169 13 -40 38 -57 110 -76 67 -17
90 -36 90 -70 0 -16 -5 -32 -12 -36 -15 -9 -122 -9 -166 1 l-32 7 0 -50 0 -51
56 -7 c70 -8 163 0 200 17 48 24 69 63 69 129 -1 77 -24 103 -117 131 -81 25
-101 40 -89 72 8 21 14 22 100 21 l91 -1 0 43 c0 29 -5 44 -16 48 -30 12 -189
5 -221 -9z"/>
<path d="M2005 518 c-3 -8 -4 -112 -3 -233 l3 -220 60 0 60 0 0 230 0 230 -58
3 c-40 2 -59 -1 -62 -10z"/>
<path d="M2250 295 l0 -235 60 0 60 0 0 159 c0 143 2 161 20 183 35 45 121 41
134 -5 3 -12 6 -93 6 -179 l0 -158 60 0 60 0 0 159 c0 153 1 161 23 187 19 21
32 27 66 27 23 0 48 -6 54 -12 8 -8 14 -71 17 -184 l5 -172 60 0 60 0 0 185
c-1 156 -3 190 -18 217 -23 43 -64 63 -131 63 -63 0 -101 -12 -133 -42 -13
-12 -23 -16 -23 -10 0 25 -63 52 -123 52 -57 0 -117 -21 -117 -40 0 -6 -4 -10
-10 -10 -5 0 -10 11 -10 25 0 24 -3 25 -60 25 l-60 0 0 -235z"/>
</g>
</svg>
